<?xml version="1.0" encoding="UTF-8" standalone="no"?>
<!DOCTYPE svg PUBLIC "-//W3C//DTD SVG 1.1//EN" "http://www.w3.org/Graphics/SVG/1.1/DTD/svg11.dtd">
<svg width="100%" height="100%" viewBox="0 0 24 24" version="1.1" xmlns="http://www.w3.org/2000/svg" xmlns:xlink="http://www.w3.org/1999/xlink" xml:space="preserve" xmlns:serif="http://www.serif.com/" style="fill-rule:evenodd;clip-rule:evenodd;stroke-linejoin:round;stroke-miterlimit:2;">
    <path d="M3,3L3,21L21,21L21,3L3,3ZM9,7L11,7L11,11L13,11L13,7L15,7L15,9L17,9L17,7L19,7L19,19L15,19L15,17L13,17L13,19L5,19L5,8L7,8L7,9L9,9L9,7ZM9,13L9,15L11,15L11,13L9,13ZM9,15L7,15L7,17L9,17L9,15ZM15,13L15,15L17,15L17,13L15,13Z" style="fill:rgb(155,103,71);fill-rule:nonzero;"/>
</svg>
